<?xml version="1.0" encoding="utf-8"?>
<!-- Generator: Adobe Illustrator 16.0.5, SVG Export Plug-In . SVG Version: 6.00 Build 0)  -->
<!DOCTYPE svg PUBLIC "-//W3C//DTD SVG 1.1//EN" "http://www.w3.org/Graphics/SVG/1.1/DTD/svg11.dtd">
<svg version="1.1" id="Layer_1" xmlns="http://www.w3.org/2000/svg" xmlns:xlink="http://www.w3.org/1999/xlink" x="0px" y="0px"
	 width="1000px" height="1000px" viewBox="0 0 1000 1000" enable-background="new 0 0 1000 1000" xml:space="preserve">
<path fill="#51687C" d="M914.095,208.62c-46.331-20.208-100.275,0.959-120.48,47.274l-125.39,227.438l-34.562-101.29
	c-11.116-64.519-67.337-113.615-135.033-113.615c-68.514,0-125.311,50.318-135.428,116.016l-34.198,100.279l-126.14-228.828
	c-20.223-46.315-74.149-67.481-120.509-47.274C36.045,228.837,14.876,282.789,35.1,329.1c2.287,5.242,5.024,10.143,8.115,14.718
	l167.336,303.526l-0.023-0.015l0.709,1.262l39.23,71.159l12.229,20.36c0.317,0.778,0.614,1.564,0.954,2.338
	c20.227,46.304,74.16,67.506,120.492,47.301c20.353-8.895,35.846-24.309,45.108-42.722l4.268-6.503
	c0.018-0.029,0.039-0.053,0.056-0.08l-0.001-0.002l65.057-99.167l0.433-0.677l68.063,106.306l0.008-0.008
	c9.258,18.471,24.774,33.937,45.186,42.853c45.666,19.921,98.742-0.432,119.609-45.39l-0.146,0.374l2.387-4.299l11.827-20.685
	l207.294-376.013c3.07-4.552,5.794-9.424,8.074-14.638C981.588,282.789,960.43,228.837,914.095,208.62z"/>
<path fill="#51687C" d="M635.676,404.611c0-75.674-61.35-137.033-137.031-137.033c-75.657,0-137.033,61.358-137.033,137.033
	c0,75.654,61.376,137.029,137.033,137.029C574.326,541.641,635.676,480.266,635.676,404.611z"/>
<path fill="#5F7CA0" d="M202.864,255.894c20.218,46.312-0.943,100.258-47.274,120.5c-46.341,20.2-100.272-0.944-120.49-47.293
	c-20.224-46.311,0.945-100.263,47.255-120.48C128.715,188.413,182.641,209.579,202.864,255.894z"/>
<polygon fill="#51687C" points="498.63,425.191 377.283,343.159 266.313,668.545 428.44,748.266 498.63,641.276 398.615,485.474 "/>
<polygon fill="#51687C" points="730.95,667.157 619.93,341.809 498.63,423.831 598.657,484.115 498.63,639.926 567.127,746.905 "/>
<polygon fill="#495968" points="498.63,423.831 396.79,484.09 498.63,641.276 598.657,484.115 "/>
<path fill="#5C7691" d="M431.398,669.233c20.228,46.331-0.951,100.277-47.256,120.517c-46.332,20.205-100.266-0.997-120.492-47.301
	c-20.232-46.331,0.928-100.273,47.264-120.482C357.249,601.764,411.198,622.939,431.398,669.233z"/>
<line fill="none" x1="498.63" y1="405.459" x2="408.876" y2="568.99"/>
<line fill="none" x1="498.63" y1="405.459" x2="398.615" y2="326.747"/>
<polygon fill="#5F7CA0" points="202.864,255.894 35.1,329.1 250.467,719.751 332.742,491.501 "/>
<polygon fill="#5C7691" points="429.61,667.157 328.275,487.225 245.592,709.668 262.898,740.445 "/>
<path fill="#5F7CA0" d="M793.614,255.894c-20.241,46.312,0.934,100.258,47.25,120.5c46.326,20.2,100.253-0.944,120.502-47.293
	c20.222-46.311-0.937-100.263-47.271-120.48C867.764,188.413,813.819,209.579,793.614,255.894z"/>
<defs>
	<filter id="Adobe_OpacityMaskFilter" filterUnits="userSpaceOnUse" x="210.528" y="647.33" width="223.046" height="150.07">
		<feFlood  style="flood-color:white;flood-opacity:1" result="back"/>
		<feBlend  in="SourceGraphic" in2="back" mode="normal"/>
	</filter>
</defs>
<mask maskUnits="userSpaceOnUse" x="210.528" y="647.33" width="223.046" height="150.07" id="SVGID_1_">
	<g filter="url(#Adobe_OpacityMaskFilter)">
		<linearGradient id="SVGID_2_" gradientUnits="userSpaceOnUse" x1="290.1187" y1="782.3408" x2="324.1996" y2="688.7042">
			<stop  offset="0" style="stop-color:#FFFFFF"/>
			<stop  offset="1" style="stop-color:#000000"/>
		</linearGradient>
		<path fill="url(#SVGID_2_)" d="M262.857,739.963c0.313,0.827,0.432,1.69,0.793,2.486c20.227,46.304,74.16,67.506,120.492,47.301
			c16.642-7.304,40.553-35.261,49.955-49.305l-62.742-18.1l-67.982-16.467l-92.845-58.549l0,0l51.314,93.115L262.857,739.963z"/>
	</g>
</mask>
<path mask="url(#SVGID_1_)" fill="#506371" d="M262.857,739.963c0.313,0.827,0.432,1.69,0.793,2.486
	c20.227,46.304,74.16,67.506,120.492,47.301c16.642-7.304,40.031-35.261,49.432-49.305l-62.219-18.1l-67.982-16.467l-92.845-58.549
	l0,0l52.609,93.53L262.857,739.963z"/>
<path fill="#5C7691" d="M565.036,669.233c-20.205,46.331,0.956,100.277,47.284,120.517c46.318,20.205,100.275-0.997,120.502-47.301
	c20.205-46.331-0.953-100.273-47.267-120.482C639.19,601.764,585.282,622.939,565.036,669.233z"/>
<polygon fill="#5F7CA0" points="793.614,255.894 961.366,329.1 745.998,719.751 663.718,491.501 "/>
<polygon fill="#5C7691" points="566.839,667.157 668.72,483.069 751,711.318 734.171,740.445 "/>
<defs>
	<filter id="Adobe_OpacityMaskFilter_1_" filterUnits="userSpaceOnUse" x="563.171" y="647.33" width="222.742" height="150.07">
		<feFlood  style="flood-color:white;flood-opacity:1" result="back"/>
		<feBlend  in="SourceGraphic" in2="back" mode="normal"/>
	</filter>
</defs>
<mask maskUnits="userSpaceOnUse" x="563.171" y="647.33" width="222.742" height="150.07" id="SVGID_3_">
	<g filter="url(#Adobe_OpacityMaskFilter_1_)">
		
			<linearGradient id="SVGID_4_" gradientUnits="userSpaceOnUse" x1="227.3872" y1="782.3428" x2="261.4708" y2="688.6989" gradientTransform="matrix(-1 0 0 1 933.7256 0)">
			<stop  offset="0" style="stop-color:#FFFFFF"/>
			<stop  offset="1" style="stop-color:#000000"/>
		</linearGradient>
		<path fill="url(#SVGID_4_)" d="M733.615,739.963c-0.347,0.827-0.448,1.69-0.793,2.486
			c-20.227,46.304-74.184,67.506-120.502,47.301c-16.661-7.304-40.57-35.261-49.947-49.305l62.715-18.1l67.975-16.467l92.851-58.549
			l0,0l-51.311,93.115L733.615,739.963z"/>
	</g>
</mask>
<path mask="url(#SVGID_3_)" fill="#506371" d="M733.615,739.963c-0.347,0.827-0.448,1.69-0.793,2.486
	c-20.227,46.304-74.184,67.506-120.502,47.301c-16.661-7.304-39.774-35.261-49.149-49.305l61.917-18.1l67.975-16.467l92.851-58.549
	l0,0l-54.129,97.404L733.615,739.963z"/>
<circle fill="#FFFFFF" cx="497.723" cy="404.609" r="127.789"/>
<g>
	<path fill="#5F7CA0" d="M514.9,405.512v-16.398l10.574-19.727l32.379-16.898l7.52,7.76l16.416-1.423l8.449-6.337h-12.66
		l-15.516-13.942l3.311,10.425l-12.795-6.338l-9.518,2.114l-2.791,11.269l-11.281,6.723l-4.24-19.397l11.967-1.422l-7.02-6.332
		l7.742-6.342l4.932-5.728l6.326-4.129l-2.809-11.267l-7.051-5.629l4.225,13.378l-4.934,7.646l-7.033-10.466v-14.913l9.176-0.924
		l5.617-4.58l-7.76-6.329l5.141-1.913l30.797,12.822l16.174,15.131l16.746,18.682l5.428,21.297l-6.654,0.164l16.105,10.25
		l-1.156,17.908l-3.705,12.686c0,0-14.797-25.35-14.797-23.237c0,2.111,10.967,26.754,10.967,26.754l9.33-4.228v19.02l-6.188,16.213
		l-3.143,21.914l-6.605,15.072l-7.844,14.045l-10.07,14.586h-14.588l1.396-46.607l-3.518-16.036l-11.984-10.548l-20.414,10.548
		l-21.838-10.548L514.9,405.512z"/>
	<polygon fill="#5F7CA0" points="452.666,305.309 456.434,313.052 456.434,323.518 443.072,328.553 443.072,338.529 
		421.949,341.229 414.189,350.377 407.934,354.591 402.232,370.805 397.705,357.419 387.438,358.825 384.617,376.441 
		388.844,388.406 391.662,405.512 407.934,401.971 423.355,413.059 439.545,426.427 447.549,439.818 471.23,450.377 
		466.729,466.754 463.49,484.061 447.549,487.729 440.248,503.908 439.545,515.889 439.545,515.889 431.25,514.543 419.836,504.594 
		407.934,470.096 389.055,440.078 387.438,410.945 381.607,384.174 372.943,372.206 379.926,347.504 386.006,329.293 
		407.934,313.717 430.182,291.332 459.391,280.392 447.549,296.154 452.666,300.385 	"/>
	<polygon opacity="0.15" fill="#5F7CA0" points="379.926,347.504 387.438,358.825 372.943,372.206 	"/>
	<polygon opacity="0.21" fill="#5F7CA0" points="387.438,358.825 386.006,329.293 379.926,347.504 	"/>
	<polygon opacity="0.15" fill="#5F7CA0" points="386.006,329.293 407.934,313.717 413.664,332.686 	"/>
	<polygon opacity="0.18" fill="#5F7CA0" points="386.006,329.293 413.664,332.686 397.705,357.419 	"/>
	<polygon opacity="0.1" fill="#5F7CA0" points="407.934,313.717 430.182,291.332 422.08,315.181 413.664,332.686 	"/>
	<polygon opacity="0.02" fill="#5F7CA0" points="430.182,291.332 447.549,296.154 440.57,308.122 	"/>
	<polygon opacity="0.07" fill="#5F7CA0" points="440.57,308.122 422.08,315.181 430.182,291.332 	"/>
	<polygon opacity="0.13" fill="#5F7CA0" points="422.08,315.181 443.072,328.553 440.57,308.122 	"/>
	<polygon opacity="0.07" fill="#5F7CA0" points="440.57,308.122 452.666,305.309 452.666,300.385 447.549,296.154 	"/>
	<polygon opacity="0.02" fill="#5F7CA0" points="440.57,308.122 456.434,323.518 456.434,313.052 452.666,305.309 	"/>
	<polygon opacity="0.15" fill="#5F7CA0" points="440.57,308.122 443.072,328.553 456.434,323.518 	"/>
	<polygon opacity="0.05" fill="#5F7CA0" points="447.549,296.154 459.391,280.392 430.182,291.332 	"/>
	<polygon opacity="0.08" fill="#5F7CA0" points="422.08,315.181 421.949,341.229 443.072,328.553 	"/>
	<polygon opacity="0.05" fill="#5F7CA0" points="421.949,341.229 443.072,338.529 443.072,328.553 	"/>
	<polygon opacity="0.14" fill="#5F7CA0" points="413.664,332.686 421.949,341.229 422.08,315.181 	"/>
	<polygon opacity="0.08" fill="#5F7CA0" points="397.705,357.419 407.934,354.591 416.629,347.504 413.664,332.686 	"/>
	<polygon opacity="0.07" fill="#5F7CA0" points="416.629,347.504 421.949,341.229 413.664,332.686 	"/>
	<polygon opacity="0.21" fill="#5F7CA0" points="387.438,358.825 386.006,329.293 397.705,357.419 	"/>
	<polygon opacity="0.14" fill="#5F7CA0" points="397.705,357.419 402.232,370.805 407.934,354.591 	"/>
	<polygon opacity="0.21" fill="#5F7CA0" points="372.943,372.206 381.607,384.174 384.617,376.441 387.438,358.825 	"/>
	<polygon opacity="0.28" fill="#5F7CA0" points="381.607,384.174 387.438,410.945 391.662,405.512 	"/>
	<polygon opacity="0.21" fill="#5F7CA0" points="391.662,405.512 388.844,388.406 384.617,376.441 381.607,384.174 	"/>
	<polygon opacity="0.15" fill="#5F7CA0" points="387.438,410.945 397.705,428.887 439.545,426.427 407.934,401.971 391.662,405.512 
			"/>
	<polygon opacity="0.28" fill="#5F7CA0" points="397.705,428.887 389.055,440.078 387.438,410.945 	"/>
	<polygon fill="#5F7CA0" points="478.283,315.871 486.721,304.605 499.193,298.139 499.193,292.635 502.227,286.306 
		492.363,280.392 479.68,286.988 479.68,295.447 471.23,308.122 478.283,315.871 	"/>
	<polygon opacity="0.15" fill="#5F7CA0" points="397.705,428.887 407.934,470.096 389.055,440.078 	"/>
	<polygon opacity="0.12" fill="#5F7CA0" points="397.705,428.887 438.029,457.416 471.23,450.377 447.549,439.818 439.545,426.427 	
		"/>
	<polygon opacity="0.21" fill="#5F7CA0" points="438.029,457.416 413.5,486.188 407.152,468.875 397.705,428.887 	"/>
	<polygon opacity="0.15" fill="#5F7CA0" points="438.029,457.416 463.49,484.061 471.23,450.377 	"/>
	<polygon opacity="0.23" fill="#5F7CA0" points="438.029,457.416 463.49,484.061 447.549,487.729 423.701,474.23 	"/>
	<polygon opacity="0.35" fill="#5F7CA0" points="423.701,474.23 431.318,514.613 419.836,504.594 	"/>
	<polygon opacity="0.27" fill="#5F7CA0" points="413.5,486.188 419.836,504.594 423.701,474.23 	"/>
	<polygon opacity="0.3" fill="#5F7CA0" points="423.701,474.23 440.248,503.908 447.549,487.729 	"/>
	<polygon opacity="0.3" fill="#5F7CA0" points="440.248,503.908 431.318,514.613 423.701,474.23 	"/>
	<polygon opacity="0.24" fill="#5F7CA0" points="440.248,503.908 439.545,515.889 431.318,514.613 	"/>
	<polygon opacity="0.07" fill="#5F7CA0" points="478.283,315.871 479.68,295.447 471.23,308.122 	"/>
	<polygon opacity="0.1" fill="#5F7CA0" points="479.68,295.447 499.193,298.139 486.721,304.605 478.283,315.871 	"/>
	<polygon opacity="0.05" fill="#5F7CA0" points="479.68,295.447 492.363,280.392 479.68,286.988 	"/>
	<polygon opacity="0.02" fill="#5F7CA0" points="479.68,295.447 492.363,280.392 502.227,286.306 499.193,292.635 499.193,298.139 	
		"/>
	<polygon opacity="0.12" fill="#5F7CA0" points="525.475,369.387 538.164,401.953 517.707,420.279 514.9,405.512 514.9,389.113 	"/>
	<polygon opacity="0.18" fill="#5F7CA0" points="538.164,401.953 559.959,420.279 539.545,430.827 517.707,420.279 	"/>
	<polygon opacity="0.07" fill="#5F7CA0" points="525.475,369.387 557.854,352.488 559.959,372.206 538.164,401.953 	"/>
	<polygon opacity="0.14" fill="#5F7CA0" points="538.164,401.953 568.719,390.968 559.959,372.206 	"/>
	<polygon opacity="0.21" fill="#5F7CA0" points="559.959,420.279 568.719,390.968 538.164,401.953 	"/>
	<polygon opacity="0.21" fill="#5F7CA0" points="568.719,390.968 584.268,415.42 559.959,420.279 	"/>
	<polygon opacity="0.12" fill="#5F7CA0" points="584.268,415.42 571.943,430.827 559.959,420.279 	"/>
	<polygon opacity="0.18" fill="#5F7CA0" points="571.943,430.827 575.461,446.863 588.477,434.162 584.268,415.42 	"/>
	<polygon opacity="0.31" fill="#5F7CA0" points="588.477,434.162 613.172,449.768 574.721,467.211 575.461,446.863 	"/>
	<polygon opacity="0.35" fill="#5F7CA0" points="613.172,449.768 607.172,463.795 598.723,478.885 592.512,487.729 574.721,467.211 
			"/>
	<polygon opacity="0.31" fill="#5F7CA0" points="592.512,487.729 574.064,493.471 574.721,467.211 	"/>
	<polygon opacity="0.16" fill="#5F7CA0" points="559.959,372.206 565.373,360.248 557.854,352.488 	"/>
	<polygon opacity="0.1" fill="#5F7CA0" points="565.373,360.488 581.789,359.074 575.701,402.221 568.719,391.219 559.959,372.455 	
		"/>
	<polygon opacity="0.09" fill="#5F7CA0" points="581.789,358.825 590.238,352.488 602.205,370.095 575.701,402.221 	"/>
	<polygon opacity="0.17" fill="#5F7CA0" points="602.205,370.095 613.172,396.849 575.701,402.221 	"/>
	<polygon opacity="0.22" fill="#5F7CA0" points="584.268,415.42 613.172,396.849 575.701,402.221 	"/>
	<polygon opacity="0.17" fill="#5F7CA0" points="588.477,434.162 613.172,396.849 584.268,415.42 	"/>
	<polygon opacity="0.16" fill="#5F7CA0" points="613.172,396.849 617.211,425.521 622.502,411.641 622.502,392.621 	"/>
	<polygon opacity="0.2" fill="#5F7CA0" points="617.211,425.521 588.477,434.162 613.172,396.849 	"/>
	<polygon opacity="0.25" fill="#5F7CA0" points="617.211,425.521 615.4,434.162 613.172,449.768 588.477,434.162 	"/>
	<polygon opacity="0.02" fill="#5F7CA0" points="528.988,362.738 524.748,347.504 524.748,343.341 536.715,341.919 	"/>
	<polygon opacity="0.07" fill="#5F7CA0" points="528.988,362.738 540.27,356.016 541.578,347.504 543.061,344.747 536.715,341.919 	
		"/>
	<polygon opacity="0.04" fill="#5F7CA0" points="536.715,341.919 529.695,335.587 549.92,332.686 	"/>
	<polygon opacity="0.07" fill="#5F7CA0" points="549.92,332.686 552.578,342.633 543.061,344.747 536.715,341.919 	"/>
	<polygon opacity="0.02" fill="#5F7CA0" points="549.92,332.686 548.695,319.389 542.369,323.518 529.695,335.587 	"/>
	<polygon opacity="0.07" fill="#5F7CA0" points="548.695,319.389 568.719,323.518 549.92,332.686 	"/>
	<polygon opacity="0.16" fill="#5F7CA0" points="549.92,332.686 562.062,338.546 565.373,348.971 552.578,342.633 	"/>
	<polygon opacity="0.14" fill="#5F7CA0" points="562.062,338.546 588.104,334.891 568.719,323.518 549.92,332.686 	"/>
	<polygon opacity="0.21" fill="#5F7CA0" points="588.104,334.891 577.578,352.488 562.062,338.546 	"/>
	<polygon opacity="0.14" fill="#5F7CA0" points="588.104,334.891 605.758,352.488 593.582,347.504 590.238,352.488 577.578,352.488 
			"/>
	<polygon opacity="0.09" fill="#5F7CA0" points="588.104,334.891 590.238,312.346 606.984,331.027 	"/>
	<polygon opacity="0.11" fill="#5F7CA0" points="606.984,331.027 612.412,352.324 605.758,352.488 588.104,334.891 	"/>
	<polygon opacity="0.21" fill="#5F7CA0" points="593.582,347.504 613.172,357.205 602.205,370.095 590.238,352.488 	"/>
	<polygon opacity="0.2" fill="#5F7CA0" points="613.172,357.205 617.002,393.332 620.707,380.646 621.863,362.738 	"/>
	<polygon opacity="0.31" fill="#5F7CA0" points="613.172,357.205 617.002,393.332 602.205,370.095 	"/>
	<polygon opacity="0.24" fill="#5F7CA0" points="568.719,323.518 590.238,312.346 588.104,334.891 	"/>
	<polygon opacity="0.07" fill="#5F7CA0" points="590.238,312.346 574.064,297.215 562.062,303.25 	"/>
	<polygon opacity="0.11" fill="#5F7CA0" points="562.062,303.25 568.719,323.518 590.238,312.346 	"/>
	<polygon opacity="0.15" fill="#5F7CA0" points="562.062,303.25 548.695,319.389 568.719,323.518 	"/>
	<polygon opacity="0.24" fill="#5F7CA0" points="562.062,303.25 540.27,297.215 544.645,307.127 	"/>
	<polygon opacity="0.24" fill="#5F7CA0" points="562.062,303.25 548.695,319.389 544.645,307.127 	"/>
	<polygon opacity="0.07" fill="#5F7CA0" points="562.062,303.25 544.645,284.393 538.127,286.306 545.887,292.635 540.27,297.215 	
		"/>
	<polygon opacity="0.02" fill="#5F7CA0" points="544.645,284.393 574.064,297.215 562.062,303.25 	"/>
	<polygon opacity="0.2" fill="#5F7CA0" points="544.645,307.127 538.836,302.493 543.061,315.871 538.127,323.518 531.094,298.139 
		540.27,297.215 	"/>
	<polygon opacity="0.25" fill="#5F7CA0" points="538.127,323.518 531.094,313.052 531.094,298.139 	"/>
	<path fill="#5F7CA0" d="M540.27,520.771"/>
	<path opacity="0.04" fill="#5F7CA0" d="M619.814,431.672c6.705-5.062-4.846,16.326-8.572,24.238
		c-29.797,63.393-105.367,90.637-168.781,60.84c-36.463-17.174-60.963-49.488-69.518-85.923
		C372.943,430.827,504.281,518.889,619.814,431.672z"/>
</g>
<path fill="#51687C" d="M497.725,267.579c-75.657,0-137.033,61.357-137.033,137.031c0,75.654,61.376,137.029,137.033,137.029
	c75.681,0,137.03-61.375,137.03-137.029C634.755,328.937,573.405,267.579,497.725,267.579z M497.725,532.505
	c-70.635,0-127.896-57.26-127.896-127.895c0-70.637,57.262-127.896,127.896-127.896c70.634,0,127.895,57.26,127.895,127.896
	C625.619,475.245,568.358,532.505,497.725,532.505z"/>
</svg>
